# xmcd CD database file
#
# Track frame offsets:
#	150
#	20360
#	38550
#	55937
#	73662
#	87115
#	99927
#	119837
#	135012
#	155305
#	170345
#	185657
#	200310
#	215987
#
# Disc length: 3132 seconds
#
# Revision: 20
# Processed by: cddbd v1.5.2PL0 Copyright (c) Steve Scherf et al.
# Submitted via: CDex 1.51
#
DISCID=ba0c3a0e
DTITLE=Brooks and Dunn - Steers and Stripes
DYEAR=2001
DGENRE=Country
TTITLE0=Only in America
TTITLE1=The last thing I do
TTITLE2=The long goodbye
TTITLE3=Go west
TTITLE4=My heart is lost to you
TTITLE5=Good girls go to heaven
TTITLE6=When she's gone, she's gone
TTITLE7=Ain't nothing 'bout you
TTITLE8=Unloved
TTITLE9=Deny, deny, deny
TTITLE10=Lucky me, lonely you
TTITLE11=I fall
TTITLE12=Every river
TTITLE13=See Jane dance
EXTD=YEAR: 2001
EXTT0=
EXTT1=
EXTT2=
EXTT3=
EXTT4=
EXTT5=
EXTT6=
EXTT7=
EXTT8=
EXTT9=
EXTT10=
EXTT11=
EXTT12=
EXTT13=
PLAYORDER=
